<svg width="46" height="46" viewBox="0 0 46 46" fill="none" xmlns="http://www.w3.org/2000/svg">
<g filter="url(#filter0_d)">
<path d="M31.171 8.78624L23 16.9572L14.829 8.78624L12.7862 10.829L20.9573 19L12.7862 27.171L14.829 29.2138L23 21.0428L31.171 29.2138L33.2138 27.171L25.0428 19L33.2138 10.829L31.171 8.78624Z" fill="white"/>
<path d="M22.6465 17.3108L23 17.6644L23.3536 17.3108L31.171 9.49334L32.5067 10.829L24.6892 18.6464L24.3357 19L24.6892 19.3536L32.5067 27.171L31.171 28.5067L23.3536 20.6892L23 20.3356L22.6465 20.6892L14.829 28.5067L13.4934 27.171L21.3108 19.3536L21.6644 19L21.3108 18.6464L13.4934 10.829L14.829 9.49334L22.6465 17.3108Z" stroke="black"/>
</g>
<defs>
<filter id="filter0_d" x="0.615234" y="0.615234" width="44.7696" height="44.7696" filterUnits="userSpaceOnUse" color-interpolation-filters="sRGB">
<feFlood flood-opacity="0" result="BackgroundImageFix"/>
<feColorMatrix in="SourceAlpha" type="matrix" values="0 0 0 0 0 0 0 0 0 0 0 0 0 0 0 0 0 0 127 0"/>
<feOffset dy="4"/>
<feGaussianBlur stdDeviation="2"/>
<feColorMatrix type="matrix" values="0 0 0 0 0 0 0 0 0 0 0 0 0 0 0 0 0 0 0.25 0"/>
<feBlend mode="normal" in2="BackgroundImageFix" result="effect1_dropShadow"/>
<feBlend mode="normal" in="SourceGraphic" in2="effect1_dropShadow" result="shape"/>
</filter>
</defs>
</svg>
